<svg width="352" height="332" fill="none" xmlns="http://www.w3.org/2000/svg"><path fill-rule="evenodd" clip-rule="evenodd" d="M183.382 269.29V38.868c51.347-11.965 42.545-19.958 120.011-26.403v232.822c-22.718 0-45.569 2.975-64.372 7.634-9.237 2.288-17.648 4.755-28.226 7.778-10.407 2.973-17.552 6.292-27.412 8.59l-.001.001ZM32.168.463h50.375c13.92.811 27.643 3.269 50.154 9.88 50.758 14.902 33.196 19.556 66.764 6.199 8.106-3.223 12.972-4.534 21.789-7.011 21.546-6.056 35.24-8.317 49.11-9.068h49.833v259.225c-85.694 0-136.153 30.041-144.013 30.041-8.268 0-57.783-30.041-144.012-30.041V.463Zm16.8 12.002c10.87 2.531 34.456 2.362 62.913 9.093 21.428 5.068 37.785 12.808 57.097 17.31V269.29c-11.061-.92-56.294-24.002-120.01-24.002V12.465Z" fill="#fff"/><path fill-rule="evenodd" clip-rule="evenodd" d="M167.416 304.73c-13.46-1.183-68.506-30.852-146.045-30.852V38.385H.926v254.003c104.936 0 165.193 38.613 175.255 38.613 9.566 0 70.972-38.613 175.256-38.613V38.385h-20.445v235.493c-27.646 0-55.455 3.824-78.338 9.812-11.242 2.943-21.476 6.112-34.35 9.999-12.665 3.821-21.36 8.088-33.359 11.041h-17.529Z" fill="#fff"/></svg>