<svg xmlns="http://www.w3.org/2000/svg" width="16" height="16" id="book" fill=""><path d="m5.01 1.502-3 .6V3.012h-2v11h15v-11h-2v-.91l-3-.6-2.5.5-2.5-.5zm0 1.02 2 .398v7.982l-2-.4-2 .4v-7.98l2-.4zm5 0 2 .398v7.982l-2-.4-2 .4v-7.98l2-.4zm-9 1.49h1v8.11l3-.6 2 .4v1.09h-6v-9zm12 0h1v9h-6v-1.09l2-.4 3 .6v-8.11z" color="#000" font-family="sans-serif" font-weight="400" overflow="visible" style="line-height:normal;text-indent:0;text-align:start;text-decoration-line:none;text-decoration-style:solid;text-decoration-color:#000;text-transform:none;block-progression:tb;white-space:normal;isolation:auto;mix-blend-mode:normal;solid-color:#000;solid-opacity:1" ></path></svg>